<svg width="100" height="63" viewBox="0 0 100 63" fill="none" xmlns="http://www.w3.org/2000/svg">
<path d="M21.6426 43V45H23.8894V43" stroke="white" stroke-width="0.444444"/>
<path d="M3.94893 62L43.5489 62" stroke="white"/>
<path d="M9.6 32H1L5.18965 59H42.71L44 43.5" stroke="white"/>
<rect x="17.5" y="0.5" width="12" height="12" stroke="white"/>
<path d="M19.0925 32.7913C19.0925 32.6494 19.0714 32.5228 19.0293 32.4116C18.9871 32.2966 18.9104 32.1911 18.7992 32.0953C18.688 31.9994 18.5308 31.9035 18.3275 31.8077C18.1243 31.708 17.8578 31.6063 17.528 31.5028C17.1522 31.3801 16.7937 31.2421 16.4524 31.0887C16.1149 30.9315 15.8139 30.7493 15.5493 30.5422C15.2847 30.3352 15.0758 30.0936 14.9224 29.8175C14.7728 29.5414 14.698 29.2193 14.698 28.8512C14.698 28.4945 14.7767 28.1724 14.9339 27.8848C15.0911 27.5972 15.3116 27.3518 15.5953 27.1486C15.8791 26.9415 16.2127 26.7843 16.5962 26.6769C16.9796 26.5657 17.4015 26.5101 17.8616 26.5101C18.4752 26.5101 19.0139 26.6194 19.4779 26.838C19.9457 27.0527 20.31 27.3557 20.5708 27.7468C20.8315 28.1341 20.9619 28.5847 20.9619 29.0985H19.0983C19.0983 28.8723 19.0504 28.6729 18.9545 28.5003C18.8625 28.3239 18.7206 28.1859 18.5288 28.0862C18.3409 27.9865 18.1051 27.9366 17.8214 27.9366C17.5453 27.9366 17.3133 27.9788 17.1254 28.0631C16.9413 28.1437 16.8013 28.2549 16.7055 28.3968C16.6134 28.5386 16.5674 28.6939 16.5674 28.8627C16.5674 28.9969 16.6019 29.1196 16.671 29.2308C16.7438 29.3382 16.8474 29.4398 16.9816 29.5356C17.1196 29.6277 17.2883 29.7159 17.4877 29.8002C17.6871 29.8846 17.9153 29.9651 18.1722 30.0418C18.6209 30.1837 19.0178 30.3409 19.3629 30.5135C19.7118 30.686 20.0052 30.8816 20.2429 31.1002C20.4807 31.3188 20.659 31.5661 20.7779 31.8422C20.9006 32.1183 20.9619 32.4308 20.9619 32.7797C20.9619 33.1517 20.8891 33.4815 20.7433 33.7691C20.6015 34.0567 20.3944 34.3021 20.1221 34.5053C19.8537 34.7047 19.5316 34.8562 19.1558 34.9597C18.78 35.0633 18.3601 35.115 17.8961 35.115C17.4743 35.115 17.0583 35.0614 16.648 34.954C16.2376 34.8428 15.8657 34.6741 15.5321 34.4478C15.2023 34.2216 14.9377 33.934 14.7383 33.585C14.5427 33.2322 14.445 32.8143 14.445 32.3311H16.3201C16.3201 32.5842 16.3565 32.7989 16.4294 32.9753C16.5022 33.1479 16.6058 33.2878 16.74 33.3952C16.878 33.5026 17.0448 33.5793 17.2404 33.6253C17.436 33.6713 17.6545 33.6943 17.8961 33.6943C18.1761 33.6943 18.4023 33.656 18.5749 33.5793C18.7513 33.4987 18.8816 33.3895 18.966 33.2514C19.0504 33.1134 19.0925 32.96 19.0925 32.7913ZM24.4557 28.7764V35H22.6553V28.7764H24.4557ZM22.546 27.1658C22.546 26.9051 22.638 26.6923 22.8221 26.5274C23.0062 26.3586 23.2477 26.2743 23.5468 26.2743C23.8459 26.2743 24.0875 26.3586 24.2716 26.5274C24.4595 26.6923 24.5534 26.9051 24.5534 27.1658C24.5534 27.4228 24.4595 27.6356 24.2716 27.8043C24.0875 27.9692 23.8459 28.0516 23.5468 28.0516C23.2477 28.0516 23.0062 27.9692 22.8221 27.8043C22.638 27.6356 22.546 27.4228 22.546 27.1658ZM28.1392 30.0821V35H26.3446V28.7764H28.0299L28.1392 30.0821ZM27.9091 31.6696L27.4547 31.6811C27.4547 31.244 27.5065 30.8433 27.61 30.479C27.7174 30.1108 27.8727 29.7906 28.0759 29.5184C28.2792 29.2461 28.5303 29.0352 28.8294 28.8857C29.1324 28.7361 29.4813 28.6613 29.8763 28.6613C30.1524 28.6613 30.4036 28.7035 30.6298 28.7879C30.856 28.8684 31.0497 28.9969 31.2107 29.1733C31.3756 29.3458 31.5022 29.5721 31.5904 29.852C31.6786 30.1281 31.7227 30.4598 31.7227 30.8471V35H29.9281V31.0657C29.9281 30.7896 29.8935 30.5806 29.8245 30.4387C29.7593 30.293 29.6635 30.1933 29.5369 30.1396C29.4104 30.0859 29.2589 30.0591 29.0825 30.0591C28.8908 30.0591 28.7202 30.1013 28.5706 30.1856C28.4249 30.2661 28.3022 30.3793 28.2025 30.525C28.1028 30.6707 28.028 30.8413 27.9781 31.0369C27.9321 31.2325 27.9091 31.4434 27.9091 31.6696ZM31.5386 31.5776L30.9692 31.6236C30.9692 31.2018 31.019 30.8107 31.1187 30.4502C31.2184 30.0897 31.368 29.7772 31.5674 29.5126C31.7668 29.2442 32.0141 29.0352 32.3094 28.8857C32.6085 28.7361 32.9555 28.6613 33.3505 28.6613C33.6419 28.6613 33.9065 28.7035 34.1442 28.7879C34.3858 28.8723 34.5929 29.0084 34.7655 29.1963C34.9418 29.3842 35.078 29.6315 35.1738 29.9383C35.2697 30.2412 35.3176 30.6132 35.3176 31.0542V35H33.5115V31.0542C33.5115 30.7819 33.477 30.5748 33.408 30.4329C33.3428 30.2911 33.2469 30.1933 33.1204 30.1396C32.9977 30.0859 32.8501 30.0591 32.6775 30.0591C32.4858 30.0591 32.319 30.0993 32.1771 30.1799C32.0352 30.2566 31.9163 30.3639 31.8205 30.502C31.7246 30.6362 31.6536 30.7953 31.6076 30.9794C31.5616 31.1634 31.5386 31.3628 31.5386 31.5776ZM38.9092 29.9728V37.3928H37.1146V28.7764H38.7884L38.9092 29.9728ZM42.7917 31.8192V31.94C42.7917 32.3924 42.74 32.8123 42.6364 33.1996C42.5329 33.5831 42.3776 33.9186 42.1705 34.2062C41.9673 34.4938 41.7161 34.7182 41.417 34.8792C41.1179 35.0364 40.7709 35.115 40.3759 35.115C40.0001 35.115 39.6742 35.0364 39.3981 34.8792C39.1258 34.7182 38.8957 34.4957 38.7078 34.212C38.5238 33.9244 38.3742 33.5965 38.2592 33.2284C38.148 32.8564 38.0617 32.4596 38.0004 32.0377V31.8019C38.0617 31.3533 38.1499 30.9372 38.2649 30.5537C38.38 30.1703 38.5295 29.8386 38.7136 29.5587C38.8977 29.2749 39.1258 29.0544 39.3981 28.8972C39.6703 28.74 39.9944 28.6613 40.3702 28.6613C40.7613 28.6613 41.1083 28.7361 41.4113 28.8857C41.7142 29.0352 41.9673 29.25 42.1705 29.5299C42.3776 29.806 42.5329 30.1377 42.6364 30.525C42.74 30.9123 42.7917 31.3437 42.7917 31.8192ZM40.9914 31.94V31.8192C40.9914 31.5661 40.9722 31.3341 40.9338 31.1232C40.8955 30.9084 40.8341 30.7225 40.7498 30.5652C40.6654 30.4042 40.5542 30.2796 40.4162 30.1914C40.2781 30.1032 40.1094 30.0591 39.91 30.0591C39.6953 30.0591 39.5131 30.0936 39.3636 30.1626C39.214 30.2316 39.0932 30.3332 39.0012 30.4675C38.9092 30.5978 38.8421 30.7589 38.7999 30.9506C38.7615 31.1424 38.7404 31.3609 38.7366 31.6063V32.2391C38.7404 32.5267 38.7807 32.7836 38.8574 33.0098C38.9379 33.2322 39.0625 33.4067 39.2313 33.5333C39.4038 33.656 39.6339 33.7173 39.9215 33.7173C40.1247 33.7173 40.2935 33.6732 40.4277 33.585C40.5657 33.493 40.675 33.3645 40.7555 33.1996C40.8399 33.0347 40.8993 32.8449 40.9338 32.6302C40.9722 32.4155 40.9914 32.1854 40.9914 31.94ZM46.2279 26.165V35H44.4276V26.165H46.2279ZM51.0446 35.115C50.55 35.115 50.1071 35.0364 49.7159 34.8792C49.3248 34.722 48.9931 34.5053 48.7208 34.2292C48.4524 33.9493 48.2473 33.6272 48.1054 33.2629C47.9635 32.8986 47.8926 32.5094 47.8926 32.0953V31.8767C47.8926 31.4127 47.9577 30.9851 48.0881 30.594C48.2185 30.2029 48.4083 29.8635 48.6576 29.5759C48.9107 29.2845 49.2213 29.0601 49.5894 28.9029C49.9575 28.7419 50.3774 28.6613 50.8491 28.6613C51.29 28.6613 51.6831 28.7342 52.0282 28.8799C52.3733 29.0218 52.6648 29.227 52.9025 29.4954C53.1403 29.76 53.3205 30.0802 53.4432 30.456C53.5697 30.8279 53.633 31.2459 53.633 31.7099V32.4461H48.6173V31.29H51.8729V31.1519C51.8729 30.9334 51.8326 30.7416 51.7521 30.5767C51.6754 30.4119 51.5604 30.2853 51.407 30.1971C51.2575 30.1051 51.0676 30.0591 50.8376 30.0591C50.619 30.0591 50.4368 30.1051 50.2911 30.1971C50.1454 30.2892 50.0285 30.4195 49.9403 30.5883C49.8559 30.7531 49.7945 30.9468 49.7562 31.1692C49.7178 31.3878 49.6987 31.6236 49.6987 31.8767V32.0953C49.6987 32.3368 49.7313 32.5573 49.7965 32.7567C49.8616 32.9561 49.9575 33.1268 50.0841 33.2687C50.2106 33.4105 50.364 33.5217 50.5442 33.6023C50.7244 33.6828 50.9296 33.7231 51.1597 33.7231C51.4434 33.7231 51.7138 33.6694 51.9707 33.562C52.2276 33.4508 52.45 33.2782 52.6379 33.0443L53.4777 34.0049C53.3512 34.189 53.1729 34.3673 52.9428 34.5398C52.7165 34.7086 52.4443 34.8466 52.126 34.954C51.8077 35.0614 51.4473 35.115 51.0446 35.115ZM62.0125 32.0895H59.9072V30.6343H62.0125C62.3231 30.6343 62.5723 30.5825 62.7602 30.479C62.9519 30.3754 63.0919 30.2335 63.1801 30.0533C63.2721 29.8693 63.3181 29.6622 63.3181 29.4321C63.3181 29.1944 63.2721 28.9739 63.1801 28.7706C63.0919 28.5636 62.9519 28.3968 62.7602 28.2702C62.5723 28.1437 62.3231 28.0804 62.0125 28.0804H60.586V35H58.7108V26.6252H62.0125C62.6797 26.6252 63.251 26.7459 63.7265 26.9875C64.2059 27.2291 64.5721 27.5608 64.8252 27.9826C65.0821 28.4006 65.2105 28.8799 65.2105 29.4206C65.2105 29.9613 65.0821 30.431 64.8252 30.8298C64.5721 31.2286 64.2059 31.5392 63.7265 31.7617C63.251 31.9802 62.6797 32.0895 62.0125 32.0895ZM68.6468 30.2259V35H66.8522V28.7764H68.5375L68.6468 30.2259ZM70.5046 28.7304L70.4759 30.4042C70.3992 30.3927 70.2995 30.3831 70.1768 30.3754C70.0541 30.3639 69.9486 30.3582 69.8604 30.3582C69.6303 30.3582 69.4309 30.3869 69.2622 30.4445C69.0973 30.4981 68.9593 30.5787 68.8481 30.686C68.7407 30.7934 68.6602 30.9276 68.6065 31.0887C68.5528 31.2459 68.526 31.428 68.526 31.6351L68.1866 31.4683C68.1866 31.058 68.2269 30.6822 68.3074 30.3409C68.3879 29.9996 68.5049 29.7044 68.6583 29.4551C68.8116 29.202 68.9995 29.0065 69.222 28.8684C69.4444 28.7304 69.6975 28.6613 69.9812 28.6613C70.0732 28.6613 70.1672 28.6671 70.2631 28.6786C70.3589 28.6901 70.4395 28.7074 70.5046 28.7304ZM71.3755 31.9515V31.8307C71.3755 31.3744 71.4407 30.9545 71.571 30.571C71.7014 30.1837 71.8932 29.8482 72.1462 29.5644C72.3993 29.2806 72.7099 29.0601 73.0781 28.9029C73.4462 28.7419 73.868 28.6613 74.3435 28.6613C74.8267 28.6613 75.2523 28.7419 75.6204 28.9029C75.9924 29.0601 76.3049 29.2806 76.558 29.5644C76.8111 29.8482 77.0028 30.1837 77.1332 30.571C77.2636 30.9545 77.3288 31.3744 77.3288 31.8307V31.9515C77.3288 32.404 77.2636 32.8238 77.1332 33.2111C77.0028 33.5946 76.8111 33.9301 76.558 34.2177C76.3049 34.5015 75.9943 34.722 75.6262 34.8792C75.2581 35.0364 74.8343 35.115 74.355 35.115C73.8795 35.115 73.4558 35.0364 73.0838 34.8792C72.7119 34.722 72.3993 34.5015 72.1462 34.2177C71.8932 33.9301 71.7014 33.5946 71.571 33.2111C71.4407 32.8238 71.3755 32.404 71.3755 31.9515ZM73.1758 31.8307V31.9515C73.1758 32.1969 73.195 32.427 73.2334 32.6417C73.2755 32.8564 73.3427 33.0443 73.4347 33.2054C73.5267 33.3664 73.6475 33.493 73.7971 33.585C73.9504 33.6732 74.1364 33.7173 74.355 33.7173C74.5736 33.7173 74.7576 33.6732 74.9072 33.585C75.0567 33.493 75.1775 33.3664 75.2696 33.2054C75.3616 33.0443 75.4268 32.8564 75.4651 32.6417C75.5073 32.427 75.5284 32.1969 75.5284 31.9515V31.8307C75.5284 31.5891 75.5073 31.3628 75.4651 31.1519C75.4268 30.9372 75.3616 30.7474 75.2696 30.5825C75.1775 30.4176 75.0548 30.2892 74.9014 30.1971C74.7519 30.1051 74.5659 30.0591 74.3435 30.0591C74.1288 30.0591 73.9466 30.1051 73.7971 30.1971C73.6475 30.2892 73.5267 30.4176 73.4347 30.5825C73.3427 30.7474 73.2755 30.9372 73.2334 31.1519C73.195 31.3628 73.1758 31.5891 73.1758 31.8307ZM81.0928 35H79.2867V28.5521C79.2867 28.0114 79.3979 27.5551 79.6203 27.1831C79.8466 26.8111 80.1706 26.5293 80.5924 26.3376C81.0142 26.142 81.5223 26.0442 82.1167 26.0442C82.458 26.0442 82.7858 26.0749 83.1003 26.1362C83.4185 26.1976 83.7464 26.2781 84.0839 26.3778L83.8308 27.8101C83.6122 27.7449 83.3802 27.6854 83.1348 27.6317C82.8894 27.5781 82.5883 27.5512 82.2317 27.5512C81.8636 27.5512 81.5818 27.6375 81.3862 27.8101C81.1906 27.9788 81.0928 28.2261 81.0928 28.5521V35ZM82.318 28.7764V30.0361H78.3722V28.7764H82.318ZM84.9121 28.7764V35H83.1118V28.7764H84.9121ZM88.682 26.165V35H86.8816V26.165H88.682ZM93.4986 35.115C93.004 35.115 92.5611 35.0364 92.1699 34.8792C91.7788 34.722 91.4471 34.5053 91.1749 34.2292C90.9064 33.9493 90.7013 33.6272 90.5594 33.2629C90.4175 32.8986 90.3466 32.5094 90.3466 32.0953V31.8767C90.3466 31.4127 90.4118 30.9851 90.5421 30.594C90.6725 30.2029 90.8623 29.8635 91.1116 29.5759C91.3647 29.2845 91.6753 29.0601 92.0434 28.9029C92.4115 28.7419 92.8314 28.6613 93.3031 28.6613C93.7441 28.6613 94.1371 28.7342 94.4822 28.8799C94.8273 29.0218 95.1188 29.227 95.3565 29.4954C95.5943 29.76 95.7745 30.0802 95.8972 30.456C96.0238 30.8279 96.087 31.2459 96.087 31.7099V32.4461H91.0713V31.29H94.3269V31.1519C94.3269 30.9334 94.2867 30.7416 94.2061 30.5767C94.1294 30.4119 94.0144 30.2853 93.861 30.1971C93.7115 30.1051 93.5217 30.0591 93.2916 30.0591C93.073 30.0591 92.8909 30.1051 92.7451 30.1971C92.5994 30.2892 92.4825 30.4195 92.3943 30.5883C92.3099 30.7531 92.2486 30.9468 92.2102 31.1692C92.1719 31.3878 92.1527 31.6236 92.1527 31.8767V32.0953C92.1527 32.3368 92.1853 32.5573 92.2505 32.7567C92.3157 32.9561 92.4115 33.1268 92.5381 33.2687C92.6646 33.4105 92.818 33.5217 92.9982 33.6023C93.1785 33.6828 93.3836 33.7231 93.6137 33.7231C93.8974 33.7231 94.1678 33.6694 94.4247 33.562C94.6816 33.4508 94.904 33.2782 95.0919 33.0443L95.9317 34.0049C95.8052 34.189 95.6269 34.3673 95.3968 34.5398C95.1705 34.7086 94.8983 34.8466 94.58 34.954C94.2617 35.0614 93.9013 35.115 93.4986 35.115Z" fill="white"/>
<path d="M14.0506 21.0105L6.47659 21.0586L6.51714 30.0479" stroke="white" stroke-width="0.599297"/>
</svg>
