<svg width="119" height="63" viewBox="0 0 119 63" fill="none" xmlns="http://www.w3.org/2000/svg">
<path d="M26 43V45H28.6667V43" stroke="white" stroke-width="0.444444"/>
<path d="M5 62L52 62" stroke="white"/>
<path d="M11.5 32H1.5L6.37168 59H50L51.5 43.5" stroke="white"/>
<rect x="21.5" y="0.5" width="14" height="14" stroke="white"/>
<path d="M22.033 32.7913C22.033 32.6494 22.0119 32.5228 21.9697 32.4116C21.9275 32.2966 21.8508 32.1911 21.7396 32.0953C21.6284 31.9994 21.4712 31.9035 21.2679 31.8077C21.0647 31.708 20.7982 31.6063 20.4684 31.5028C20.0926 31.3801 19.7341 31.2421 19.3928 31.0887C19.0554 30.9315 18.7543 30.7493 18.4898 30.5422C18.2252 30.3352 18.0162 30.0936 17.8628 29.8175C17.7132 29.5414 17.6385 29.2193 17.6385 28.8512C17.6385 28.4945 17.7171 28.1724 17.8743 27.8848C18.0315 27.5972 18.252 27.3518 18.5358 27.1486C18.8195 26.9415 19.1531 26.7843 19.5366 26.6769C19.9201 26.5657 20.3419 26.5101 20.802 26.5101C21.4156 26.5101 21.9543 26.6194 22.4183 26.838C22.8862 27.0527 23.2505 27.3557 23.5112 27.7468C23.772 28.1341 23.9023 28.5847 23.9023 29.0985H22.0387C22.0387 28.8723 21.9908 28.6729 21.8949 28.5003C21.8029 28.3239 21.661 28.1859 21.4693 28.0862C21.2814 27.9865 21.0455 27.9366 20.7618 27.9366C20.4857 27.9366 20.2537 27.9788 20.0658 28.0631C19.8817 28.1437 19.7418 28.2549 19.6459 28.3968C19.5539 28.5386 19.5079 28.6939 19.5079 28.8627C19.5079 28.9969 19.5424 29.1196 19.6114 29.2308C19.6842 29.3382 19.7878 29.4398 19.922 29.5356C20.06 29.6277 20.2288 29.7159 20.4282 29.8002C20.6276 29.8846 20.8557 29.9651 21.1126 30.0418C21.5613 30.1837 21.9582 30.3409 22.3033 30.5135C22.6523 30.686 22.9456 30.8816 23.1833 31.1002C23.4211 31.3188 23.5994 31.5661 23.7183 31.8422C23.841 32.1183 23.9023 32.4308 23.9023 32.7797C23.9023 33.1517 23.8295 33.4815 23.6838 33.7691C23.5419 34.0567 23.3348 34.3021 23.0626 34.5053C22.7941 34.7047 22.472 34.8562 22.0962 34.9597C21.7204 35.0633 21.3005 35.115 20.8366 35.115C20.4147 35.115 19.9987 35.0614 19.5884 34.954C19.1781 34.8428 18.8061 34.6741 18.4725 34.4478C18.1427 34.2216 17.8781 33.934 17.6787 33.585C17.4832 33.2322 17.3854 32.8143 17.3854 32.3311H19.2605C19.2605 32.5842 19.2969 32.7989 19.3698 32.9753C19.4427 33.1479 19.5462 33.2878 19.6804 33.3952C19.8185 33.5026 19.9853 33.5793 20.1808 33.6253C20.3764 33.6713 20.595 33.6943 20.8366 33.6943C21.1165 33.6943 21.3427 33.656 21.5153 33.5793C21.6917 33.4987 21.8221 33.3895 21.9064 33.2514C21.9908 33.1134 22.033 32.96 22.033 32.7913ZM27.3961 28.7764V35H25.5957V28.7764H27.3961ZM25.4864 27.1658C25.4864 26.9051 25.5785 26.6923 25.7625 26.5274C25.9466 26.3586 26.1882 26.2743 26.4873 26.2743C26.7864 26.2743 27.028 26.3586 27.212 26.5274C27.3999 26.6923 27.4939 26.9051 27.4939 27.1658C27.4939 27.4228 27.3999 27.6356 27.212 27.8043C27.028 27.9692 26.7864 28.0516 26.4873 28.0516C26.1882 28.0516 25.9466 27.9692 25.7625 27.8043C25.5785 27.6356 25.4864 27.4228 25.4864 27.1658ZM31.0796 30.0821V35H29.285V28.7764H30.9703L31.0796 30.0821ZM30.8496 31.6696L30.3951 31.6811C30.3951 31.244 30.4469 30.8433 30.5505 30.479C30.6578 30.1108 30.8131 29.7906 31.0164 29.5184C31.2196 29.2461 31.4708 29.0352 31.7699 28.8857C32.0728 28.7361 32.4218 28.6613 32.8167 28.6613C33.0928 28.6613 33.344 28.7035 33.5702 28.7879C33.7965 28.8684 33.9901 28.9969 34.1512 29.1733C34.3161 29.3458 34.4426 29.5721 34.5308 29.852C34.619 30.1281 34.6631 30.4598 34.6631 30.8471V35H32.8685V31.0657C32.8685 30.7896 32.834 30.5806 32.765 30.4387C32.6998 30.293 32.6039 30.1933 32.4774 30.1396C32.3508 30.0859 32.1993 30.0591 32.023 30.0591C31.8312 30.0591 31.6606 30.1013 31.511 30.1856C31.3653 30.2661 31.2426 30.3793 31.1429 30.525C31.0432 30.6707 30.9684 30.8413 30.9186 31.0369C30.8726 31.2325 30.8496 31.4434 30.8496 31.6696ZM34.479 31.5776L33.9096 31.6236C33.9096 31.2018 33.9594 30.8107 34.0591 30.4502C34.1588 30.0897 34.3084 29.7772 34.5078 29.5126C34.7072 29.2442 34.9545 29.0352 35.2498 28.8857C35.5489 28.7361 35.8959 28.6613 36.2909 28.6613C36.5823 28.6613 36.8469 28.7035 37.0847 28.7879C37.3263 28.8723 37.5333 29.0084 37.7059 29.1963C37.8823 29.3842 38.0184 29.6315 38.1143 29.9383C38.2101 30.2412 38.2581 30.6132 38.2581 31.0542V35H36.452V31.0542C36.452 30.7819 36.4174 30.5748 36.3484 30.4329C36.2832 30.2911 36.1874 30.1933 36.0608 30.1396C35.9381 30.0859 35.7905 30.0591 35.6179 30.0591C35.4262 30.0591 35.2594 30.0993 35.1175 30.1799C34.9756 30.2566 34.8567 30.3639 34.7609 30.502C34.665 30.6362 34.5941 30.7953 34.5481 30.9794C34.502 31.1634 34.479 31.3628 34.479 31.5776ZM41.8496 29.9728V37.3928H40.055V28.7764H41.7288L41.8496 29.9728ZM45.7322 31.8192V31.94C45.7322 32.3924 45.6804 32.8123 45.5769 33.1996C45.4733 33.5831 45.318 33.9186 45.1109 34.2062C44.9077 34.4938 44.6565 34.7182 44.3574 34.8792C44.0583 35.0364 43.7113 35.115 43.3163 35.115C42.9405 35.115 42.6146 35.0364 42.3385 34.8792C42.0662 34.7182 41.8362 34.4957 41.6483 34.212C41.4642 33.9244 41.3147 33.5965 41.1996 33.2284C41.0884 32.8564 41.0021 32.4596 40.9408 32.0377V31.8019C41.0021 31.3533 41.0903 30.9372 41.2054 30.5537C41.3204 30.1703 41.47 29.8386 41.654 29.5587C41.8381 29.2749 42.0662 29.0544 42.3385 28.8972C42.6108 28.74 42.9348 28.6613 43.3106 28.6613C43.7017 28.6613 44.0488 28.7361 44.3517 28.8857C44.6546 29.0352 44.9077 29.25 45.1109 29.5299C45.318 29.806 45.4733 30.1377 45.5769 30.525C45.6804 30.9123 45.7322 31.3437 45.7322 31.8192ZM43.9318 31.94V31.8192C43.9318 31.5661 43.9126 31.3341 43.8743 31.1232C43.8359 30.9084 43.7746 30.7225 43.6902 30.5652C43.6059 30.4042 43.4946 30.2796 43.3566 30.1914C43.2186 30.1032 43.0498 30.0591 42.8504 30.0591C42.6357 30.0591 42.4535 30.0936 42.304 30.1626C42.1544 30.2316 42.0336 30.3332 41.9416 30.4675C41.8496 30.5978 41.7825 30.7589 41.7403 30.9506C41.702 31.1424 41.6809 31.3609 41.677 31.6063V32.2391C41.6809 32.5267 41.7211 32.7836 41.7978 33.0098C41.8783 33.2322 42.003 33.4067 42.1717 33.5333C42.3443 33.656 42.5743 33.7173 42.8619 33.7173C43.0652 33.7173 43.2339 33.6732 43.3681 33.585C43.5061 33.493 43.6154 33.3645 43.696 33.1996C43.7803 33.0347 43.8398 32.8449 43.8743 32.6302C43.9126 32.4155 43.9318 32.1854 43.9318 31.94ZM49.1684 26.165V35H47.368V26.165H49.1684ZM53.9851 35.115C53.4904 35.115 53.0475 35.0364 52.6564 34.8792C52.2652 34.722 51.9335 34.5053 51.6613 34.2292C51.3928 33.9493 51.1877 33.6272 51.0458 33.2629C50.9039 32.8986 50.833 32.5094 50.833 32.0953V31.8767C50.833 31.4127 50.8982 30.9851 51.0286 30.594C51.1589 30.2029 51.3487 29.8635 51.598 29.5759C51.8511 29.2845 52.1617 29.0601 52.5298 28.9029C52.8979 28.7419 53.3178 28.6613 53.7895 28.6613C54.2305 28.6613 54.6235 28.7342 54.9686 28.8799C55.3138 29.0218 55.6052 29.227 55.8429 29.4954C56.0807 29.76 56.2609 30.0802 56.3836 30.456C56.5102 30.8279 56.5734 31.2459 56.5734 31.7099V32.4461H51.5577V31.29H54.8133V31.1519C54.8133 30.9334 54.7731 30.7416 54.6925 30.5767C54.6159 30.4119 54.5008 30.2853 54.3474 30.1971C54.1979 30.1051 54.0081 30.0591 53.778 30.0591C53.5594 30.0591 53.3773 30.1051 53.2316 30.1971C53.0858 30.2892 52.9689 30.4195 52.8807 30.5883C52.7963 30.7531 52.735 30.9468 52.6966 31.1692C52.6583 31.3878 52.6391 31.6236 52.6391 31.8767V32.0953C52.6391 32.3368 52.6717 32.5573 52.7369 32.7567C52.8021 32.9561 52.8979 33.1268 53.0245 33.2687C53.151 33.4105 53.3044 33.5217 53.4846 33.6023C53.6649 33.6828 53.87 33.7231 54.1001 33.7231C54.3839 33.7231 54.6542 33.6694 54.9111 33.562C55.168 33.4508 55.3905 33.2782 55.5783 33.0443L56.4181 34.0049C56.2916 34.189 56.1133 34.3673 55.8832 34.5398C55.657 34.7086 55.3847 34.8466 55.0664 34.954C54.7481 35.0614 54.3877 35.115 53.9851 35.115ZM64.9529 32.0895H62.8477V30.6343H64.9529C65.2635 30.6343 65.5127 30.5825 65.7006 30.479C65.8924 30.3754 66.0323 30.2335 66.1205 30.0533C66.2126 29.8693 66.2586 29.6622 66.2586 29.4321C66.2586 29.1944 66.2126 28.9739 66.1205 28.7706C66.0323 28.5636 65.8924 28.3968 65.7006 28.2702C65.5127 28.1437 65.2635 28.0804 64.9529 28.0804H63.5264V35H61.6513V26.6252H64.9529C65.6201 26.6252 66.1915 26.7459 66.667 26.9875C67.1463 27.2291 67.5125 27.5608 67.7656 27.9826C68.0225 28.4006 68.151 28.8799 68.151 29.4206C68.151 29.9613 68.0225 30.431 67.7656 30.8298C67.5125 31.2286 67.1463 31.5392 66.667 31.7617C66.1915 31.9802 65.6201 32.0895 64.9529 32.0895ZM71.5872 30.2259V35H69.7926V28.7764H71.4779L71.5872 30.2259ZM73.4451 28.7304L73.4163 30.4042C73.3396 30.3927 73.2399 30.3831 73.1172 30.3754C72.9945 30.3639 72.889 30.3582 72.8008 30.3582C72.5708 30.3582 72.3714 30.3869 72.2026 30.4445C72.0378 30.4981 71.8997 30.5787 71.7885 30.686C71.6811 30.7934 71.6006 30.9276 71.5469 31.0887C71.4932 31.2459 71.4664 31.428 71.4664 31.6351L71.127 31.4683C71.127 31.058 71.1673 30.6822 71.2478 30.3409C71.3283 29.9996 71.4453 29.7044 71.5987 29.4551C71.7521 29.202 71.94 29.0065 72.1624 28.8684C72.3848 28.7304 72.6379 28.6613 72.9216 28.6613C73.0137 28.6613 73.1076 28.6671 73.2035 28.6786C73.2994 28.6901 73.3799 28.7074 73.4451 28.7304ZM74.3159 31.9515V31.8307C74.3159 31.3744 74.3811 30.9545 74.5115 30.571C74.6419 30.1837 74.8336 29.8482 75.0867 29.5644C75.3398 29.2806 75.6504 29.0601 76.0185 28.9029C76.3866 28.7419 76.8084 28.6613 77.2839 28.6613C77.7671 28.6613 78.1927 28.7419 78.5608 28.9029C78.9328 29.0601 79.2453 29.2806 79.4984 29.5644C79.7515 29.8482 79.9432 30.1837 80.0736 30.571C80.204 30.9545 80.2692 31.3744 80.2692 31.8307V31.9515C80.2692 32.404 80.204 32.8238 80.0736 33.2111C79.9432 33.5946 79.7515 33.9301 79.4984 34.2177C79.2453 34.5015 78.9347 34.722 78.5666 34.8792C78.1985 35.0364 77.7747 35.115 77.2954 35.115C76.8199 35.115 76.3962 35.0364 76.0242 34.8792C75.6523 34.722 75.3398 34.5015 75.0867 34.2177C74.8336 33.9301 74.6419 33.5946 74.5115 33.2111C74.3811 32.8238 74.3159 32.404 74.3159 31.9515ZM76.1163 31.8307V31.9515C76.1163 32.1969 76.1354 32.427 76.1738 32.6417C76.216 32.8564 76.2831 33.0443 76.3751 33.2054C76.4671 33.3664 76.5879 33.493 76.7375 33.585C76.8909 33.6732 77.0768 33.7173 77.2954 33.7173C77.514 33.7173 77.6981 33.6732 77.8476 33.585C77.9972 33.493 78.1179 33.3664 78.21 33.2054C78.302 33.0443 78.3672 32.8564 78.4055 32.6417C78.4477 32.427 78.4688 32.1969 78.4688 31.9515V31.8307C78.4688 31.5891 78.4477 31.3628 78.4055 31.1519C78.3672 30.9372 78.302 30.7474 78.21 30.5825C78.1179 30.4176 77.9952 30.2892 77.8419 30.1971C77.6923 30.1051 77.5063 30.0591 77.2839 30.0591C77.0692 30.0591 76.887 30.1051 76.7375 30.1971C76.5879 30.2892 76.4671 30.4176 76.3751 30.5825C76.2831 30.7474 76.216 30.9372 76.1738 31.1519C76.1354 31.3628 76.1163 31.5891 76.1163 31.8307ZM84.0333 35H82.2271V28.5521C82.2271 28.0114 82.3384 27.5551 82.5608 27.1831C82.787 26.8111 83.111 26.5293 83.5328 26.3376C83.9547 26.142 84.4627 26.0442 85.0571 26.0442C85.3984 26.0442 85.7263 26.0749 86.0407 26.1362C86.359 26.1976 86.6868 26.2781 87.0243 26.3778L86.7712 27.8101C86.5526 27.7449 86.3206 27.6854 86.0752 27.6317C85.8298 27.5781 85.5288 27.5512 85.1721 27.5512C84.804 27.5512 84.5222 27.6375 84.3266 27.8101C84.131 27.9788 84.0333 28.2261 84.0333 28.5521V35ZM85.2584 28.7764V30.0361H81.3126V28.7764H85.2584ZM87.8526 28.7764V35H86.0522V28.7764H87.8526ZM91.6224 26.165V35H89.822V26.165H91.6224ZM96.4391 35.115C95.9444 35.115 95.5015 35.0364 95.1104 34.8792C94.7192 34.722 94.3875 34.5053 94.1153 34.2292C93.8469 33.9493 93.6417 33.6272 93.4998 33.2629C93.3579 32.8986 93.287 32.5094 93.287 32.0953V31.8767C93.287 31.4127 93.3522 30.9851 93.4826 30.594C93.6129 30.2029 93.8028 29.8635 94.052 29.5759C94.3051 29.2845 94.6157 29.0601 94.9838 28.9029C95.352 28.7419 95.7718 28.6613 96.2435 28.6613C96.6845 28.6613 97.0775 28.7342 97.4227 28.8799C97.7678 29.0218 98.0592 29.227 98.297 29.4954C98.5347 29.76 98.7149 30.0802 98.8376 30.456C98.9642 30.8279 99.0274 31.2459 99.0274 31.7099V32.4461H94.0117V31.29H97.2674V31.1519C97.2674 30.9334 97.2271 30.7416 97.1466 30.5767C97.0699 30.4119 96.9548 30.2853 96.8014 30.1971C96.6519 30.1051 96.4621 30.0591 96.232 30.0591C96.0134 30.0591 95.8313 30.1051 95.6856 30.1971C95.5398 30.2892 95.4229 30.4195 95.3347 30.5883C95.2503 30.7531 95.189 30.9468 95.1506 31.1692C95.1123 31.3878 95.0931 31.6236 95.0931 31.8767V32.0953C95.0931 32.3368 95.1257 32.5573 95.1909 32.7567C95.2561 32.9561 95.352 33.1268 95.4785 33.2687C95.605 33.4105 95.7584 33.5217 95.9387 33.6023C96.1189 33.6828 96.324 33.7231 96.5541 33.7231C96.8379 33.7231 97.1082 33.6694 97.3651 33.562C97.6221 33.4508 97.8445 33.2782 98.0324 33.0443L98.8721 34.0049C98.7456 34.189 98.5673 34.3673 98.3372 34.5398C98.111 34.7086 97.8387 34.8466 97.5204 34.954C97.2022 35.0614 96.8417 35.115 96.4391 35.115Z" fill="white"/>
<path d="M16.9893 21.0105L8 21.0586L8.04812 30.0479" stroke="white" stroke-width="0.599297"/>
</svg>
